# Blender v2.83.0 OBJ File: ''
# www.blender.org
o Cone.001_Cone.1841
v -1.029113 -0.260793 1.259562
v -0.762807 -0.231745 1.134436
v -0.512923 -0.316590 1.001102
v -0.317502 -0.502412 0.879858
v -0.206297 -0.760920 0.789162
v -0.196236 -1.052760 0.742823
v -0.288852 -1.333501 0.747895
v -0.470045 -1.560403 0.803605
v -0.712229 -1.698922 0.901473
v -0.978535 -1.727971 1.026599
v -1.228419 -1.643125 1.159933
v -0.004435 -1.233385 2.865275
v -1.423840 -1.457304 1.281177
v -1.535046 -1.198795 1.371873
v -1.545106 -0.906955 1.418212
v -1.452490 -0.626214 1.413140
v -1.271297 -0.399312 1.357430
vn 0.1190 0.8811 0.4578
vn 0.4445 0.8459 0.2948
vn 0.7253 0.6752 0.1342
vn 0.9187 0.3950 0.0006
vn 0.9952 0.0479 -0.0859
vn 0.9431 -0.3131 -0.1119
vn 0.7704 -0.6333 -0.0735
vn 0.5034 -0.8637 0.0233
vn 0.1828 -0.9694 0.1639
vn -0.1428 -0.9342 0.3269
vn -0.4236 -0.7635 0.4875
vn -0.6169 -0.4833 0.6211
vn -0.6934 -0.1362 0.7075
vn -0.6414 0.2248 0.7336
vn -0.4687 0.5450 0.6952
vn -0.2017 0.7754 0.5984
vn -0.4331 0.1268 -0.8924
s off
f 1//1 12//1 2//1
f 2//2 12//2 3//2
f 3//3 12//3 4//3
f 4//4 12//4 5//4
f 5//5 12//5 6//5
f 6//6 12//6 7//6
f 7//7 12//7 8//7
f 8//8 12//8 9//8
f 9//9 12//9 10//9
f 10//10 12//10 11//10
f 11//11 12//11 13//11
f 13//12 12//12 14//12
f 14//13 12//13 15//13
f 15//14 12//14 16//14
f 16//15 12//15 17//15
f 17//16 12//16 1//16
f 17//17 4//17 8//17
f 17//17 1//17 2//17
f 2//17 3//17 4//17
f 4//17 5//17 6//17
f 6//17 7//17 4//17
f 7//17 8//17 4//17
f 8//17 9//17 13//17
f 9//17 10//17 13//17
f 10//17 11//17 13//17
f 13//17 14//17 15//17
f 15//17 16//17 17//17
f 17//17 2//17 4//17
f 13//17 15//17 8//17
f 15//17 17//17 8//17
