# Blender v2.83.0 OBJ File: ''
# www.blender.org
o Cone.002_Cone.1842
v 0.909730 2.716118 0.538553
v 0.795212 2.339141 0.958395
v 0.724804 1.824336 1.206411
v 0.709224 1.250076 1.244842
v 0.750846 0.703788 1.067837
v 0.843331 0.268639 0.702343
v 0.972601 0.010876 0.204004
v 1.118974 -0.030258 -0.351312
v 1.260168 0.151499 -0.879065
v 1.374686 0.528476 -1.298908
v 1.445094 1.043281 -1.546924
v -0.848581 1.452067 -0.681260
v 1.460674 1.617541 -1.585354
v 1.419053 2.163829 -1.408349
v 1.326567 2.598979 -1.042855
v 1.197297 2.856741 -0.544516
v 1.050923 2.897875 0.010801
vn -0.6969 0.6176 0.3645
vn -0.7486 0.3680 0.5514
vn -0.7727 0.0632 0.6316
vn -0.7654 -0.2504 0.5928
vn -0.7279 -0.5251 0.4410
vn -0.6658 -0.7190 0.1992
vn -0.5887 -0.8027 -0.0957
vn -0.5082 -0.7633 -0.3988
vn -0.4366 -0.6069 -0.6641
vn -0.3849 -0.3573 -0.8510
vn -0.3608 -0.0525 -0.9312
vn -0.3681 0.2611 -0.8924
vn -0.4056 0.5358 -0.7405
vn -0.4677 0.7297 -0.4988
vn -0.5448 0.8134 -0.2039
vn -0.6253 0.7740 0.0993
vn 0.9668 -0.0091 0.2555
s off
f 1//1 12//1 2//1
f 2//2 12//2 3//2
f 3//3 12//3 4//3
f 4//4 12//4 5//4
f 5//5 12//5 6//5
f 6//6 12//6 7//6
f 7//7 12//7 8//7
f 8//8 12//8 9//8
f 9//9 12//9 10//9
f 10//10 12//10 11//10
f 11//11 12//11 13//11
f 13//12 12//12 14//12
f 14//13 12//13 15//13
f 15//14 12//14 16//14
f 16//15 12//15 17//15
f 17//16 12//16 1//16
f 8//17 13//17 17//17
f 17//17 1//17 2//17
f 2//17 3//17 4//17
f 4//17 5//17 8//17
f 5//17 6//17 8//17
f 6//17 7//17 8//17
f 8//17 9//17 10//17
f 10//17 11//17 13//17
f 13//17 14//17 15//17
f 15//17 16//17 13//17
f 16//17 17//17 13//17
f 17//17 2//17 4//17
f 8//17 10//17 13//17
f 17//17 4//17 8//17
